<svg xmlns="http://www.w3.org/2000/svg" xmlns:xlink="http://www.w3.org/1999/xlink" version="1.1" id="Layer_1" x="0px" y="0px" width="100px" height="100px" viewBox="0 0 100 100" enable-background="new 0 0 100 100" xml:space="preserve">
<circle cx="51.247" cy="22.088" r="19.088"/>
<path d="M98.871,92.917c0,1.104-0.895,2-2,2H3.128c-1.104,0-2-0.896-2-2l0,0c0-1.104,0.896-2,2-2h93.743  C97.977,90.917,98.871,91.812,98.871,92.917L98.871,92.917z"/>
<path d="M11.958,89.25V73.837c0-14.021,11.366-25.387,25.387-25.387h27.805c14.02,0,25.386,11.366,25.386,25.387V89.25H11.958z"/>
<path d="M76.145,22.089c0-2.942-2.385-5.328-5.328-5.328v10.656c0.338,0,0.666-0.039,0.986-0.1  c-2.137,8.392-9.265,14.799-18.035,15.843c-0.574-0.479-1.485-0.793-2.521-0.793c-1.741,0-3.153,0.876-3.153,1.957  c0,1.081,1.412,1.958,3.153,1.958c1.27,0,2.356-0.468,2.855-1.139c10.091-1.243,18.194-8.977,19.997-18.886  C75.336,25.281,76.145,23.787,76.145,22.089z"/>
</svg>